<?xml version="1.0" encoding="UTF-8"?>
<svg version="1.1" xmlns="http://www.w3.org/2000/svg" width="512" height="512">
<path d="M0 0 C3.84973603 3.14978402 7.48344427 6.48344427 11 10 C12.85577171 10.10945116 14.71532876 10.15587633 16.57421875 10.17578125 C17.71697266 10.19962891 18.85972656 10.22347656 20.03710938 10.24804688 C22.45099789 10.2906677 24.86511242 10.32210532 27.27929688 10.34179688 C38.56745278 10.61402946 38.56745278 10.61402946 43 15 C43.6394043 17.13793945 43.6394043 17.13793945 44 19 C44.71472977 18.99555878 45.42945953 18.99111755 46.16584778 18.98654175 C52.94654156 18.94624035 59.72721711 18.91590244 66.50800037 18.89637566 C69.99293497 18.88599882 73.47776947 18.87195319 76.96264648 18.84912109 C80.98161709 18.82295862 85.0004848 18.81347688 89.01953125 18.8046875 C90.87019951 18.78920364 90.87019951 18.78920364 92.758255 18.77340698 C105.42613454 18.7717858 114.93241557 19.91859014 124.6875 28.3125 C134.44077691 39.64738939 134.3018576 51.44546577 134.31884766 65.72875977 C134.32815625 67.52317247 134.3383263 69.31758089 134.34928894 71.11198425 C134.37649803 75.96252719 134.39171132 80.81304124 134.40471697 85.66364026 C134.42038741 90.74055102 134.44716511 95.81740311 134.4727478 100.89427185 C134.51946642 110.49876032 134.55624397 120.10325991 134.58942068 129.70780367 C134.627691 140.64617193 134.67708827 151.58448117 134.72740483 162.52279961 C134.83062179 185.01515595 134.9199154 207.50755024 135 230 C135.33733154 229.27820557 135.67466309 228.55641113 136.0222168 227.81274414 C137.55846127 224.55338268 139.12247672 221.30813445 140.6875 218.0625 C141.48317383 216.35803711 141.48317383 216.35803711 142.29492188 214.61914062 C142.82021484 213.53955078 143.34550781 212.45996094 143.88671875 211.34765625 C144.60154419 209.84730835 144.60154419 209.84730835 145.33081055 208.31665039 C147 206 147 206 149.69458008 205.16577148 C150.45536865 205.11106689 151.21615723 205.0563623 152 205 C152.26554687 204.13375 152.53109375 203.2675 152.8046875 202.375 C154.35661117 197.99309787 156.53961132 194.07554666 158.7578125 190 C160.19487447 187.10216503 160.19487447 187.10216503 159.93066406 184.15100098 C160.00830288 180.62267213 160.77228581 178.71725927 162.3515625 175.58398438 C162.86630127 174.54850464 163.38104004 173.5130249 163.91137695 172.44616699 C164.75962036 170.78672058 164.75962036 170.78672058 165.625 169.09375 C166.20531982 167.93685669 166.78563965 166.77996338 167.38354492 165.5880127 C168.61383025 163.13663536 169.85183891 160.68938317 171.09619141 158.24511719 C172.66907383 155.15532178 174.22836096 152.05893584 175.78269958 148.95977783 C193.03813701 114.56324019 193.03813701 114.56324019 200 108 C201.0828125 106.948125 201.0828125 106.948125 202.1875 105.875 C209.48639559 101.0090696 217.99439123 99.87570507 226.50390625 101.46875 C234.92978428 103.62989124 240.69026883 107.50842998 245.375 114.875 C249.68640917 122.68942913 251.37910197 130.49167955 248.953125 139.26171875 C246.6554737 146.70483363 242.97005461 153.52523686 239.4375 160.4375 C238.70436385 161.88676541 237.97178426 163.33631249 237.23974609 164.78613281 C233.24487592 172.68031326 229.17908267 180.53420642 225.00952148 188.33764648 C220.51243097 196.81019825 216.2748246 205.41397484 212 214 C207.06918219 223.90354271 202.12831199 233.78890295 196.90625 243.54296875 C192.01791408 252.7416279 187.4363692 262.09804477 182.79397583 271.42230225 C178.24040343 280.5647092 173.65510391 289.6775629 168.8359375 298.68359375 C164.17606035 307.45048128 159.80309485 316.36358178 155.37954712 325.25115967 C150.05390499 335.94692549 144.65196022 346.59204332 138.98876953 357.11425781 C138.66247559 357.73655273 138.33618164 358.35884766 138 359 C137.475271 359.82749756 136.95054199 360.65499512 136.40991211 361.50756836 C134.39830152 366.49044099 134.55917765 371.09994498 134.55859375 376.42578125 C134.54538589 377.52794479 134.53217804 378.63010834 134.51856995 379.76567078 C134.47776692 383.2813061 134.45604106 386.79668196 134.4375 390.3125 C134.41362676 393.81752553 134.38533918 397.3223098 134.34571838 400.82719421 C134.32158264 403.00420246 134.30654485 405.18133722 134.30210876 407.35847473 C134.18519193 418.84759063 132.27509878 428.60491845 123.95703125 437.08203125 C115.36095751 444.3088189 106.05227819 445.44962636 95.11424255 445.38095093 C93.95640308 445.3856309 92.79856361 445.39031087 91.60563809 445.39513266 C88.41884286 445.40497208 85.23239521 445.40150736 82.04560912 445.39217401 C78.59839139 445.38535257 75.15121864 445.39587994 71.70401001 445.40411377 C64.96188363 445.41742004 58.21985771 445.4145874 51.47772747 445.40587585 C45.99653207 445.399088 40.51536473 445.39818733 35.03416634 445.4014473 C33.8619556 445.40213684 33.8619556 445.40213684 32.66606383 445.40284032 C31.07829975 445.40379954 29.49053567 445.40477218 27.9027716 445.4057581 C13.0314786 445.41430274 -1.83975882 445.40449211 -16.71104269 445.388357 C-29.46062854 445.37495202 -42.21013243 445.37728518 -54.9597168 445.39111328 C-69.78101844 445.40718093 -84.60227145 445.41348162 -99.42358059 445.40427649 C-101.00504775 445.40332088 -102.58651492 445.40237777 -104.1679821 445.4014473 C-105.33502248 445.40075306 -105.33502248 445.40075306 -106.52563943 445.40004479 C-111.99831685 445.39745865 -117.47096332 445.40181772 -122.94363594 445.40888596 C-129.61568676 445.41731421 -136.28763174 445.41499292 -142.95967049 445.39904372 C-146.36133677 445.39117917 -149.76282682 445.38803821 -153.16449165 445.39799118 C-156.8569119 445.40619713 -160.54883741 445.39589565 -164.2412262 445.38095093 C-165.30932779 445.38764309 -166.37742939 445.39433526 -167.4778977 445.40123022 C-177.62815063 445.32162758 -186.23703575 442.74152159 -194 436 C-200.54205163 428.19986151 -202.30286409 420.99001208 -202.24050903 411.01528931 C-202.24307231 409.51301932 -202.24307231 409.51301932 -202.24568737 407.98040044 C-202.24897967 404.62699739 -202.23798268 401.27379475 -202.22705078 397.92041016 C-202.22648661 395.51561488 -202.22680334 393.11081925 -202.22793579 390.70602417 C-202.22839112 385.52993459 -202.22272098 380.35389027 -202.21146011 375.17781448 C-202.19518952 367.69412968 -202.18999551 360.21046924 -202.18748413 352.72676866 C-202.18310947 340.58427074 -202.16980659 328.44179972 -202.15087891 316.29931641 C-202.13251417 304.50569798 -202.11836057 292.71208687 -202.10986328 280.91845703 C-202.10933783 280.19120645 -202.10881239 279.46395587 -202.10827102 278.71466739 C-202.1056609 275.06617786 -202.10313349 271.41768828 -202.10064721 267.76919866 C-202.07992185 237.51277984 -202.04455364 207.25639366 -202 177 C-201.01 177 -200.02 177 -199 177 C-199 169.74 -199 162.48 -199 155 C-199.99 154.67 -200.98 154.34 -202 154 C-202.0936371 139.68289902 -202.16380742 125.36584585 -202.20724869 111.04850101 C-202.22810101 104.39996812 -202.25637607 97.75169611 -202.30175781 91.10327148 C-202.3452986 84.6841931 -202.36915486 78.26531264 -202.37950897 71.84609795 C-202.38688547 69.4001396 -202.40129001 66.95419178 -202.42292023 64.50831795 C-202.45206259 61.07570319 -202.45595133 57.6439007 -202.45410156 54.21118164 C-202.46848267 53.20560715 -202.48286377 52.20003265 -202.49768066 51.16398621 C-202.4418695 41.55864035 -199.30516967 34.70695702 -192.79296875 27.72265625 C-183.01972813 18.33267997 -171.08720515 18.85018446 -158.41015625 18.90234375 C-156.46066322 18.90446617 -156.46066322 18.90446617 -154.4717865 18.90663147 C-151.03756747 18.91042666 -147.60339158 18.92023092 -144.16918945 18.93133545 C-140.65641869 18.94161445 -137.14364088 18.94614292 -133.63085938 18.95117188 C-126.75388867 18.96185624 -119.87694641 18.97889612 -113 19 C-112.71654221 18.21208572 -112.43308441 17.42417145 -112.14103699 16.61238098 C-110.67036208 13.24530068 -109.33569525 12.46138896 -106 11 C-103.17260742 10.69458008 -103.17260742 10.69458008 -100.10546875 10.76953125 C-98.42420898 10.77049805 -98.42420898 10.77049805 -96.70898438 10.77148438 C-94.37273507 10.79869527 -92.03662659 10.8453821 -89.70117188 10.91210938 C-83.25596368 10.95692292 -83.25596368 10.95692292 -77.57763672 8.27978516 C-75.60959112 6.26076592 -73.81202603 4.1581222 -72 2 C-52.02417498 -12.10722106 -20.69744541 -13.94903464 0 0 Z " fill="#F9E5C9" transform="translate(232,38)"/>
<path d="M0 0 C3.84973603 3.14978402 7.48344427 6.48344427 11 10 C12.85577171 10.10945116 14.71532876 10.15587633 16.57421875 10.17578125 C17.71697266 10.19962891 18.85972656 10.22347656 20.03710938 10.24804688 C22.45099789 10.2906677 24.86511242 10.32210532 27.27929688 10.34179688 C38.56745278 10.61402946 38.56745278 10.61402946 43 15 C43.6394043 17.13793945 43.6394043 17.13793945 44 19 C44.71472977 18.99555878 45.42945953 18.99111755 46.16584778 18.98654175 C52.94654156 18.94624035 59.72721711 18.91590244 66.50800037 18.89637566 C69.99293497 18.88599882 73.47776947 18.87195319 76.96264648 18.84912109 C80.98161709 18.82295862 85.0004848 18.81347688 89.01953125 18.8046875 C90.87019951 18.78920364 90.87019951 18.78920364 92.758255 18.77340698 C105.42613454 18.7717858 114.93241557 19.91859014 124.6875 28.3125 C134.44077691 39.64738939 134.3018576 51.44546577 134.31884766 65.72875977 C134.32815625 67.52317247 134.3383263 69.31758089 134.34928894 71.11198425 C134.37649803 75.96252719 134.39171132 80.81304124 134.40471697 85.66364026 C134.42038741 90.74055102 134.44716511 95.81740311 134.4727478 100.89427185 C134.51946642 110.49876032 134.55624397 120.10325991 134.58942068 129.70780367 C134.627691 140.64617193 134.67708827 151.58448117 134.72740483 162.52279961 C134.83062179 185.01515595 134.9199154 207.50755024 135 230 C135.33733154 229.27820557 135.67466309 228.55641113 136.0222168 227.81274414 C137.55846127 224.55338268 139.12247672 221.30813445 140.6875 218.0625 C141.48317383 216.35803711 141.48317383 216.35803711 142.29492188 214.61914062 C142.82021484 213.53955078 143.34550781 212.45996094 143.88671875 211.34765625 C144.60154419 209.84730835 144.60154419 209.84730835 145.33081055 208.31665039 C147 206 147 206 149.69458008 205.16577148 C150.45536865 205.11106689 151.21615723 205.0563623 152 205 C152.26554687 204.13375 152.53109375 203.2675 152.8046875 202.375 C154.35661117 197.99309787 156.53961132 194.07554666 158.7578125 190 C160.19487447 187.10216503 160.19487447 187.10216503 159.93066406 184.15100098 C160.00830288 180.62267213 160.77228581 178.71725927 162.3515625 175.58398438 C162.86630127 174.54850464 163.38104004 173.5130249 163.91137695 172.44616699 C164.75962036 170.78672058 164.75962036 170.78672058 165.625 169.09375 C166.20531982 167.93685669 166.78563965 166.77996338 167.38354492 165.5880127 C168.61383025 163.13663536 169.85183891 160.68938317 171.09619141 158.24511719 C172.66907383 155.15532178 174.22836096 152.05893584 175.78269958 148.95977783 C193.03813701 114.56324019 193.03813701 114.56324019 200 108 C201.0828125 106.948125 201.0828125 106.948125 202.1875 105.875 C209.48639559 101.0090696 217.99439123 99.87570507 226.50390625 101.46875 C234.92978428 103.62989124 240.69026883 107.50842998 245.375 114.875 C249.68640917 122.68942913 251.37910197 130.49167955 248.953125 139.26171875 C246.6554737 146.70483363 242.97005461 153.52523686 239.4375 160.4375 C238.70436385 161.88676541 237.97178426 163.33631249 237.23974609 164.78613281 C233.24487592 172.68031326 229.17908267 180.53420642 225.00952148 188.33764648 C220.51243097 196.81019825 216.2748246 205.41397484 212 214 C207.06918219 223.90354271 202.12831199 233.78890295 196.90625 243.54296875 C192.01791408 252.7416279 187.4363692 262.09804477 182.79397583 271.42230225 C178.24040343 280.5647092 173.65510391 289.6775629 168.8359375 298.68359375 C164.17606035 307.45048128 159.80309485 316.36358178 155.37954712 325.25115967 C150.05390499 335.94692549 144.65196022 346.59204332 138.98876953 357.11425781 C138.66247559 357.73655273 138.33618164 358.35884766 138 359 C137.475271 359.82749756 136.95054199 360.65499512 136.40991211 361.50756836 C134.39830152 366.49044099 134.55917765 371.09994498 134.55859375 376.42578125 C134.54538589 377.52794479 134.53217804 378.63010834 134.51856995 379.76567078 C134.47776692 383.2813061 134.45604106 386.79668196 134.4375 390.3125 C134.41362676 393.81752553 134.38533918 397.3223098 134.34571838 400.82719421 C134.32158264 403.00420246 134.30654485 405.18133722 134.30210876 407.35847473 C134.18519193 418.84759063 132.27509878 428.60491845 123.95703125 437.08203125 C115.36095751 444.3088189 106.05227819 445.44962636 95.11424255 445.38095093 C93.95640308 445.3856309 92.79856361 445.39031087 91.60563809 445.39513266 C88.41884286 445.40497208 85.23239521 445.40150736 82.04560912 445.39217401 C78.59839139 445.38535257 75.15121864 445.39587994 71.70401001 445.40411377 C64.96188363 445.41742004 58.21985771 445.4145874 51.47772747 445.40587585 C45.99653207 445.399088 40.51536473 445.39818733 35.03416634 445.4014473 C33.8619556 445.40213684 33.8619556 445.40213684 32.66606383 445.40284032 C31.07829975 445.40379954 29.49053567 445.40477218 27.9027716 445.4057581 C13.0314786 445.41430274 -1.83975882 445.40449211 -16.71104269 445.388357 C-29.46062854 445.37495202 -42.21013243 445.37728518 -54.9597168 445.39111328 C-69.78101844 445.40718093 -84.60227145 445.41348162 -99.42358059 445.40427649 C-101.00504775 445.40332088 -102.58651492 445.40237777 -104.1679821 445.4014473 C-105.33502248 445.40075306 -105.33502248 445.40075306 -106.52563943 445.40004479 C-111.99831685 445.39745865 -117.47096332 445.40181772 -122.94363594 445.40888596 C-129.61568676 445.41731421 -136.28763174 445.41499292 -142.95967049 445.39904372 C-146.36133677 445.39117917 -149.76282682 445.38803821 -153.16449165 445.39799118 C-156.8569119 445.40619713 -160.54883741 445.39589565 -164.2412262 445.38095093 C-165.30932779 445.38764309 -166.37742939 445.39433526 -167.4778977 445.40123022 C-177.62815063 445.32162758 -186.23703575 442.74152159 -194 436 C-200.54205163 428.19986151 -202.30286409 420.99001208 -202.24050903 411.01528931 C-202.24307231 409.51301932 -202.24307231 409.51301932 -202.24568737 407.98040044 C-202.24897967 404.62699739 -202.23798268 401.27379475 -202.22705078 397.92041016 C-202.22648661 395.51561488 -202.22680334 393.11081925 -202.22793579 390.70602417 C-202.22839112 385.52993459 -202.22272098 380.35389027 -202.21146011 375.17781448 C-202.19518952 367.69412968 -202.18999551 360.21046924 -202.18748413 352.72676866 C-202.18310947 340.58427074 -202.16980659 328.44179972 -202.15087891 316.29931641 C-202.13251417 304.50569798 -202.11836057 292.71208687 -202.10986328 280.91845703 C-202.10933783 280.19120645 -202.10881239 279.46395587 -202.10827102 278.71466739 C-202.1056609 275.06617786 -202.10313349 271.41768828 -202.10064721 267.76919866 C-202.07992185 237.51277984 -202.04455364 207.25639366 -202 177 C-201.01 177 -200.02 177 -199 177 C-199 169.74 -199 162.48 -199 155 C-199.99 154.67 -200.98 154.34 -202 154 C-202.0936371 139.68289902 -202.16380742 125.36584585 -202.20724869 111.04850101 C-202.22810101 104.39996812 -202.25637607 97.75169611 -202.30175781 91.10327148 C-202.3452986 84.6841931 -202.36915486 78.26531264 -202.37950897 71.84609795 C-202.38688547 69.4001396 -202.40129001 66.95419178 -202.42292023 64.50831795 C-202.45206259 61.07570319 -202.45595133 57.6439007 -202.45410156 54.21118164 C-202.46848267 53.20560715 -202.48286377 52.20003265 -202.49768066 51.16398621 C-202.4418695 41.55864035 -199.30516967 34.70695702 -192.79296875 27.72265625 C-183.01972813 18.33267997 -171.08720515 18.85018446 -158.41015625 18.90234375 C-156.46066322 18.90446617 -156.46066322 18.90446617 -154.4717865 18.90663147 C-151.03756747 18.91042666 -147.60339158 18.92023092 -144.16918945 18.93133545 C-140.65641869 18.94161445 -137.14364088 18.94614292 -133.63085938 18.95117188 C-126.75388867 18.96185624 -119.87694641 18.97889612 -113 19 C-112.71654221 18.21208572 -112.43308441 17.42417145 -112.14103699 16.61238098 C-110.67036208 13.24530068 -109.33569525 12.46138896 -106 11 C-103.17260742 10.69458008 -103.17260742 10.69458008 -100.10546875 10.76953125 C-98.42420898 10.77049805 -98.42420898 10.77049805 -96.70898438 10.77148438 C-94.37273507 10.79869527 -92.03662659 10.8453821 -89.70117188 10.91210938 C-83.25596368 10.95692292 -83.25596368 10.95692292 -77.57763672 8.27978516 C-75.60959112 6.26076592 -73.81202603 4.1581222 -72 2 C-52.02417498 -12.10722106 -20.69744541 -13.94903464 0 0 Z M-166 57 C-168.2976175 60.44642625 -168.25251934 61.71309575 -168.26006222 65.77161121 C-168.26712781 66.98262243 -168.2741934 68.19363365 -168.2814731 69.44134218 C-168.27922155 70.79217868 -168.27677502 72.14301487 -168.27415466 73.49385071 C-168.2786049 74.9234723 -168.28391823 76.35309143 -168.29002339 77.78270692 C-168.3042397 81.72071021 -168.30586599 85.65863473 -168.30542648 89.59666002 C-168.3070715 93.84013217 -168.32013209 98.08357156 -168.33161926 102.32702637 C-168.35449282 111.61001289 -168.36239237 120.8929766 -168.36744571 130.17598748 C-168.37069994 135.97004745 -168.37722075 141.76410076 -168.3844471 147.55815697 C-168.40401596 163.59379138 -168.42041854 179.62941959 -168.42332363 195.66506672 C-168.4235112 196.69171309 -168.42369877 197.71835946 -168.42389202 198.77611632 C-168.42425828 200.85746713 -168.42462198 202.93881795 -168.42498314 205.02016876 C-168.42516595 206.05338367 -168.42534876 207.08659859 -168.42553711 208.15112305 C-168.42571766 209.18559601 -168.42589821 210.22006896 -168.42608423 211.28588959 C-168.42962678 228.05263947 -168.45665297 244.81926098 -168.494035 261.58596633 C-168.53208945 278.79166598 -168.5514809 295.9973019 -168.55178314 313.20304459 C-168.55236835 322.86687062 -168.56090124 332.53054353 -168.58978081 342.19433022 C-168.61425645 350.42243058 -168.62160348 358.65032199 -168.60653328 366.87844888 C-168.5993487 371.07774352 -168.60028795 375.27662523 -168.62294388 379.47587395 C-168.6434835 383.31964327 -168.64098138 387.1626809 -168.62006903 391.00644185 C-168.61656443 392.39743767 -168.62152531 393.78848574 -168.63577347 395.179413 C-168.97686765 403.51431616 -168.97686765 403.51431616 -165.58657932 410.8046751 C-162.08360333 413.77777952 -160.50840228 414.12669457 -156.01400757 414.15821838 C-154.95948898 414.1680072 -153.9049704 414.17779602 -152.8184967 414.18788147 C-151.65684494 414.19363693 -150.49519318 414.1993924 -149.29833984 414.20532227 C-148.07885147 414.21522186 -146.8593631 414.22512146 -145.60292053 414.23532104 C-142.25397739 414.2615435 -138.90505854 414.28339119 -135.55607557 414.30332303 C-132.05799747 414.325167 -128.55996305 414.35256345 -125.06192017 414.37937927 C-118.43568317 414.4293277 -111.80942196 414.47425853 -105.18313754 414.51740164 C-97.64027965 414.56675566 -90.09746559 414.62168058 -82.55465007 414.67708123 C-67.03647386 414.79093426 -51.51825737 414.89776605 -36 415 C-35.67 415.66 -35.34 416.32 -35 417 C-31.87507749 417.05791844 -28.75029234 417.09356746 -25.625 417.125 C-24.73554688 417.14175781 -23.84609375 417.15851563 -22.9296875 417.17578125 C-22.07890625 417.18222656 -21.228125 417.18867188 -20.3515625 417.1953125 C-19.56604004 417.20578613 -18.78051758 417.21625977 -17.97119141 417.22705078 C-15.765535 417.17990127 -15.765535 417.17990127 -14 415 C-12.11522293 414.74946022 -12.11522293 414.74946022 -9.7756958 414.7484436 C-8.44672775 414.74036934 -8.44672775 414.74036934 -7.09091187 414.73213196 C-6.1163504 414.73625595 -5.14178894 414.74037994 -4.13769531 414.74462891 C-3.11316254 414.74100845 -2.08862976 414.737388 -1.03305054 414.73365784 C1.19756935 414.72675076 3.42820619 414.72426084 5.65883636 414.72560501 C9.18928015 414.72656724 12.71941693 414.71366315 16.24981689 414.69662476 C26.28956701 414.65026454 36.32928724 414.62574855 46.36914062 414.61914062 C52.50534277 414.6141273 58.64122651 414.58988238 64.77732086 414.55381393 C67.11685525 414.54400829 69.45643342 414.54168812 71.79598236 414.54698563 C75.07103999 414.55405168 78.34514916 414.53678109 81.62011719 414.51416016 C82.58658173 414.52233261 83.55304626 414.53050507 84.54879761 414.53892517 C90.34289805 414.46774673 93.5498596 413.79186562 98 410 C100.8203531 406.42218064 100.22487598 402.09844651 100.125 397.75 C100.11597656 397.00492187 100.10695313 396.25984375 100.09765625 395.4921875 C100.07418358 393.66131941 100.03831525 391.83061762 100 390 C95.61285557 392.41740612 91.60355332 394.93465465 87.67578125 398.046875 C86 399 86 399 82 399 C81.58457192 391.59406006 81.24320864 384.18750434 80.98710251 376.77440643 C80.86592602 373.32869413 80.72274934 369.88737717 80.52197266 366.4453125 C79.31212269 345.29194883 82.3645724 329.86297121 94.82221127 312.45346642 C101.76954739 301.72421898 100.98242535 290.89437206 100.88989258 278.51220703 C100.89775119 276.14728164 100.90859983 273.78236458 100.92219543 271.41746521 C100.94971754 265.02719433 100.93341786 258.6377382 100.90734696 252.2474885 C100.89451491 248.2527247 100.89303702 244.25807401 100.89777184 240.26330185 C100.89855574 239.59822222 100.89933965 238.93314259 100.90014732 238.24790903 C100.90181322 236.89649205 100.90351702 235.54507511 100.90525826 234.19365822 C100.92000656 221.55605305 100.89279246 208.91881201 100.85043981 196.28128646 C100.81503529 185.44747995 100.81351477 174.61410683 100.8371582 163.78027344 C100.86463826 151.17572188 100.87286344 138.57141512 100.84922332 125.9668473 C100.84674198 124.62249942 100.84427851 123.27815151 100.84183311 121.93380356 C100.84061247 121.27247281 100.83939183 120.61114206 100.8381342 119.92977098 C100.8308131 115.27812481 100.83726602 110.6266146 100.84833717 105.9749794 C100.8617738 99.7152591 100.84565495 93.45629442 100.80669975 87.1966877 C100.79716931 84.90012984 100.79783515 82.60350365 100.80944061 80.30695534 C100.82359818 77.17165372 100.80080056 74.03871454 100.76863098 70.90359497 C100.78133319 69.99513388 100.7940354 69.08667279 100.80712253 68.15068257 C100.69771641 62.46335985 99.48537857 59.4423975 95.57844657 55.28073299 C92.72296463 52.96382851 89.93571913 52.85986985 86.40844727 52.79125977 C85.48060928 52.77196915 84.5527713 52.75267853 83.59681702 52.73280334 C79.36886594 52.67504718 75.14108169 52.62582922 70.9128418 52.5949707 C68.68091407 52.5733394 66.44907231 52.53917661 64.2175293 52.49243164 C61.000103 52.42565442 57.78442635 52.39801255 54.56640625 52.37890625 C53.56839493 52.35107559 52.57038361 52.32324493 51.54212952 52.29457092 C48.89380484 52.30246337 46.57013055 52.35875585 44 53 C41.50940447 55.79932702 41.50940447 55.79932702 40 59 C36.7867275 61.17548138 34.02511082 61.25497885 30.20645142 61.26742554 C29.023228 61.27595551 27.84000458 61.28448547 26.6209259 61.29327393 C25.32627914 61.29236755 24.03163239 61.29146118 22.69775391 61.29052734 C21.31775041 61.29651305 19.93775026 61.30331869 18.55775452 61.31088257 C14.8118223 61.32854563 11.06598145 61.33323807 7.32001162 61.33451414 C4.97881782 61.33593613 2.63764723 61.34020663 0.2964592 61.34550858 C-7.87366459 61.36400987 -16.04372314 61.37217907 -24.21386719 61.37060547 C-31.8256486 61.36940404 -39.43714647 61.39050625 -47.04885614 61.4220928 C-53.58741887 61.44825766 -60.12588901 61.45897268 -66.66450369 61.45769465 C-70.56818906 61.45718507 -74.47162243 61.46286559 -78.37525558 61.48405075 C-82.04763661 61.50343692 -85.71952536 61.50355549 -89.3919239 61.48901749 C-91.37792981 61.48593459 -93.36393578 61.50260321 -95.34986877 61.51989746 C-106.44271516 61.44162298 -106.44271516 61.44162298 -111 57 C-112.375 54.75 -112.375 54.75 -113 53 C-119.58352441 52.89838711 -126.16684577 52.8284453 -132.75097656 52.78027344 C-134.98966021 52.76018684 -137.22829158 52.7329122 -139.46679688 52.69824219 C-142.68893349 52.64959536 -145.91037501 52.62700126 -149.1328125 52.609375 C-150.62846237 52.57840729 -150.62846237 52.57840729 -152.15432739 52.54681396 C-158.10065209 52.54490383 -161.48907269 53.0104995 -166 57 Z " fill="#3D342D" transform="translate(232,38)"/>
<path d="M0 0 C1.42488659 0.00560293 2.849779 0.00986973 4.27467346 0.01286316 C8.00495672 0.02425722 11.73488341 0.0536765 15.46502686 0.0869751 C19.2793699 0.11779417 23.09377117 0.13139365 26.90820312 0.14648438 C34.37778469 0.17855239 41.84699986 0.23127472 49.31640625 0.29296875 C49.31640625 7.55296875 49.31640625 14.81296875 49.31640625 22.29296875 C43.91587891 22.29683594 43.91587891 22.29683594 38.40625 22.30078125 C34.90785028 22.32361539 31.40968393 22.35663106 27.91137695 22.390625 C25.48565194 22.40876005 23.0598238 22.41635806 20.6340332 22.41308594 C17.14063109 22.41022191 13.64935687 22.44561299 10.15625 22.48828125 C8.53709938 22.47464035 8.53709938 22.47464035 6.88523865 22.46072388 C0.7430316 22.57849414 -2.89588508 23.28239812 -7.37327576 27.61813354 C-10.36040454 31.43625134 -10.93440688 34.38235259 -10.94086266 39.21606922 C-10.94731155 40.43542158 -10.95376044 41.65477394 -10.96040475 42.91107637 C-10.9574624 44.26614219 -10.95432696 45.6212076 -10.95101929 46.97627258 C-10.95475491 48.41429371 -10.95935608 49.85231281 -10.96474993 51.29032868 C-10.97700637 55.24694947 -10.97671636 59.20348587 -10.97436118 63.16012132 C-10.97395368 67.42540507 -10.9849858 71.69066153 -10.99447632 75.95593262 C-11.01110192 84.31444537 -11.01658657 92.67292992 -11.01770107 101.03145782 C-11.01865084 107.82478545 -11.02275754 114.61810377 -11.02910233 121.41142845 C-11.04671921 140.66513836 -11.05594053 159.91882595 -11.05444138 179.17254398 C-11.05436147 180.21090476 -11.05428155 181.24926554 -11.05419922 182.3190918 C-11.05411746 183.35871817 -11.0540357 184.39834455 -11.05395146 185.46947476 C-11.05313849 202.31953112 -11.07227761 219.1694981 -11.10047595 236.01952861 C-11.12919092 253.31453521 -11.143017 270.60949821 -11.1412884 287.90452927 C-11.140624 297.616972 -11.14613793 307.32932104 -11.1676445 317.04174232 C-11.18583808 325.31112617 -11.19021868 333.58037386 -11.17662565 341.84976903 C-11.17008668 346.06938959 -11.17001213 350.28874881 -11.18733215 354.50834465 C-11.20302721 358.3717779 -11.20023614 362.23474184 -11.18276389 366.09816339 C-11.17968607 367.49520023 -11.18335584 368.89227179 -11.19448404 370.2892677 C-11.30019703 380.50770694 -11.30019703 380.50770694 -6.68359375 389.29296875 C-0.68146591 394.13289859 5.06412078 393.85261472 12.55395508 393.77880859 C14.37946396 393.78450363 14.37946396 393.78450363 16.24185181 393.79031372 C19.56208858 393.79643318 22.88132008 393.78476826 26.20143723 393.76440763 C29.67983221 393.74677831 33.15821191 393.75036273 36.63664246 393.75112915 C42.47131379 393.74925995 48.30577624 393.73194116 54.14038086 393.70458984 C60.88939072 393.67306931 67.63817258 393.66259637 74.38725072 393.66406095 C80.88368953 393.66528034 87.38005406 393.65508494 93.87647057 393.63847733 C96.64079047 393.63141059 99.40508411 393.62775072 102.16941261 393.62668991 C106.02163418 393.62431313 109.87366503 393.60491217 113.72583008 393.58349609 C115.45181175 393.58485565 115.45181175 393.58485565 117.21266174 393.58624268 C118.77926544 393.57344772 118.77926544 393.57344772 120.3775177 393.56039429 C121.28837537 393.5570426 122.19923304 393.55369091 123.13769245 393.55023766 C125.52601042 393.49623579 125.52601042 393.49623579 127.31640625 391.29296875 C129.37939453 390.97412109 129.37939453 390.97412109 131.88671875 390.87890625 C132.78261719 390.84023438 133.67851562 390.8015625 134.6015625 390.76171875 C136.00728516 390.7153125 136.00728516 390.7153125 137.44140625 390.66796875 C138.38628906 390.62929688 139.33117187 390.590625 140.3046875 390.55078125 C142.64173 390.45635529 144.97876126 390.37078481 147.31640625 390.29296875 C147.64640625 391.28296875 147.97640625 392.27296875 148.31640625 393.29296875 C162.12920231 393.40997962 175.94192106 393.49771053 189.75511169 393.55202961 C196.16943575 393.57810256 202.5834264 393.61345984 208.99755859 393.67016602 C215.18971017 393.72456597 221.38154143 393.75440661 227.57391357 393.76735497 C229.93419435 393.77658035 232.29445795 393.79459551 234.65460205 393.82161903 C237.96543 393.85801388 241.2749411 393.86290951 244.5859375 393.8605957 C245.55770432 393.87857208 246.52947113 393.89654846 247.53068542 393.91506958 C253.98177576 393.86641398 258.35983875 392.52038124 263.31640625 388.29296875 C266.70496649 384.42472787 267.54563835 381.42505465 267.22265625 376.2890625 C267.15175781 375.38945801 267.08085937 374.48985352 267.0078125 373.56298828 C266.59627029 367.47279347 266.22713575 361.81423515 270.29296875 356.90771484 C283.65974757 345.29296875 283.65974757 345.29296875 289.31640625 345.29296875 C289.41833046 351.96397767 289.48809067 358.63478368 289.53613281 365.30639648 C289.55617332 367.57307438 289.58341336 369.83970107 289.61816406 372.10620117 C289.66701493 375.37561731 289.68945137 378.64434632 289.70703125 381.9140625 C289.73799896 383.41929726 289.73799896 383.41929726 289.76959229 384.9549408 C289.7719832 392.55458012 288.1023393 398.37939613 283.67578125 404.59765625 C283.1446875 405.11585938 282.61359375 405.6340625 282.06640625 406.16796875 C281.545625 406.70164062 281.02484375 407.2353125 280.48828125 407.78515625 C273.57723526 412.58311264 266.67464112 412.72568931 258.55053711 412.6806488 C256.79690684 412.68872711 256.79690684 412.68872711 255.00784969 412.69696862 C251.78040917 412.70876126 248.55330181 412.70719516 245.32585859 412.6998018 C241.83840026 412.69505946 238.35099656 412.70758929 234.86355591 412.71781921 C228.0386125 412.73499094 221.21376122 412.73585072 214.38880181 412.73060631 C208.84080589 412.72656082 203.29283715 412.72801266 197.74484253 412.73335457 C196.95448292 412.73410299 196.16412331 412.73485141 195.3498134 412.73562251 C193.74408952 412.73715402 192.13836564 412.73869237 190.53264177 412.74023748 C175.48446443 412.7539563 160.43633912 412.74852888 145.38816297 412.73705227 C131.62678955 412.72711757 117.86555055 412.74006571 104.10419786 412.76398646 C89.96517681 412.7883781 75.82621837 412.79798536 61.6871767 412.79133373 C53.75266421 412.78784204 45.81825511 412.79007046 37.88375854 412.80758476 C31.13036293 412.82230744 24.37714356 412.82294126 17.6237514 412.80551385 C14.17964114 412.79700246 10.73584569 412.79485734 7.29175186 412.81016541 C3.55496187 412.82333284 -0.18097162 412.81186379 -3.91772461 412.79417419 C-5.00177613 412.8037792 -6.08582766 412.81338421 -7.20272923 412.82328027 C-14.75454418 412.74969774 -20.01351623 411.44338928 -25.890625 406.3984375 C-26.42042969 405.76550781 -26.95023438 405.13257813 -27.49609375 404.48046875 C-28.03878906 403.85527344 -28.58148438 403.23007812 -29.140625 402.5859375 C-33.45866255 396.16900575 -34.1222859 390.86460146 -34.08232117 383.30189514 C-34.08896799 382.31177805 -34.09561482 381.32166096 -34.10246307 380.30154032 C-34.12107598 376.99266964 -34.11848887 373.68416111 -34.1159668 370.37524414 C-34.12498497 367.9998524 -34.13531232 365.62446531 -34.14685059 363.24908447 C-34.17157705 357.47412918 -34.18267102 351.69926412 -34.18772801 345.92426074 C-34.19435174 339.20229687 -34.21782455 332.48042356 -34.24232314 325.75850492 C-34.285564 313.77188191 -34.31554616 301.78526407 -34.3371582 289.79858398 C-34.358176 278.15728205 -34.38545807 266.51602248 -34.42114258 254.87475586 C-34.4233414 254.15672899 -34.42554023 253.43870212 -34.42780568 252.69891686 C-34.43887554 249.09664981 -34.45006831 245.49438315 -34.46132219 241.89211667 C-34.55446904 212.02577093 -34.62586327 182.15940524 -34.68359375 152.29296875 C-35.34359375 151.96296875 -36.00359375 151.63296875 -36.68359375 151.29296875 C-36.68359375 144.03296875 -36.68359375 136.77296875 -36.68359375 129.29296875 C-35.69359375 128.96296875 -34.70359375 128.63296875 -33.68359375 128.29296875 C-33.68820271 127.74042986 -33.69281168 127.18789097 -33.69756031 126.61860847 C-33.80826418 113.13769319 -33.89053904 99.65685817 -33.94265461 86.17558479 C-33.96870785 79.65594627 -34.00402901 73.13663672 -34.06079102 66.6171875 C-34.11526141 60.32128557 -34.14504641 54.02569937 -34.15797997 47.72957993 C-34.16719274 45.33187772 -34.18518315 42.9341921 -34.21224403 40.53662491 C-34.24873255 37.16873572 -34.25353061 33.80213822 -34.2512207 30.43408203 C-34.27818527 28.95916542 -34.27818527 28.95916542 -34.30569458 27.45445251 C-34.24887614 19.7592376 -32.20933136 13.14761433 -26.92799854 7.3735981 C-18.83180759 -0.21626773 -10.61470193 -0.12296031 0 0 Z " fill="#85776D" transform="translate(69.68359375,63.70703125)"/>
<path d="M0 0 C3.98253291 1.25554629 7.67855041 2.7111564 11.4140625 4.57421875 C12.41759766 5.07405273 13.42113281 5.57388672 14.45507812 6.08886719 C15.50115234 6.61641602 16.54722656 7.14396484 17.625 7.6875 C19.22891602 8.4923584 19.22891602 8.4923584 20.86523438 9.31347656 C28.07249442 12.95663452 35.14157682 16.72852592 42 21 C40.28260011 26.9688434 37.4696216 32.33079979 34.6875 37.85546875 C33.89496826 39.43984489 33.89496826 39.43984489 33.08642578 41.05622864 C31.96527326 43.29551529 30.8421787 45.53383052 29.71728516 47.77124023 C28.02967752 51.1284614 26.34828317 54.48873306 24.66796875 57.84960938 C19.37962899 68.40839248 14.02759087 78.92550009 8.49499512 89.35844421 C4.72950144 96.47205374 1.12727084 103.66206947 -2.4460144 110.87371826 C-12.00107886 130.14984419 -12.00107886 130.14984419 -16.9375 139.375 C-22.23226785 149.27228691 -27.18661876 159.34034076 -32.18862915 169.38751221 C-37.97539689 181.00662814 -43.85102496 192.56723235 -50 204 C-54.92828305 202.50401708 -59.36980628 200.46104189 -63.953125 198.15625 C-64.6945575 197.78649048 -65.43598999 197.41673096 -66.19989014 197.0357666 C-67.75729052 196.2577437 -69.31369276 195.4777199 -70.86914062 194.69580078 C-73.25355332 193.49821533 -75.6421393 192.30927421 -78.03125 191.12109375 C-79.54713195 190.36249239 -81.06276583 189.60339511 -82.578125 188.84375 C-83.6499704 188.31086365 -83.6499704 188.31086365 -84.74346924 187.76721191 C-87.50070394 186.37544968 -89.80098919 185.19901081 -92 183 C-91.6386641 179.48680968 -90.54050172 176.76033731 -88.875 173.67578125 C-88.42431152 172.82918945 -87.97362305 171.98259766 -87.50927734 171.11035156 C-87.01121582 170.18706055 -86.5131543 169.26376953 -86 168.3125 C-80.63004352 158.20181414 -75.47004001 148.00110266 -70.375 137.75 C-65.64988967 128.25300756 -60.89647917 118.78431101 -55.89282227 109.43017578 C-50.78190335 99.80949624 -45.98792524 90.0237651 -41.15039062 80.26367188 C-40.45052879 78.85546479 -39.75065912 77.44726161 -39.05078125 76.0390625 C-38.71225128 75.35366394 -38.37372131 74.66826538 -38.02493286 73.96209717 C-36.40501114 70.70646814 -34.74160094 67.50032112 -32.92333984 64.35058594 C-28.95091652 57.96291743 -28.95091652 57.96291743 -27.828125 50.74609375 C-28.06375446 45.61044259 -26.19996521 42.46706128 -23.75 38.0625 C-23.35425781 37.29615234 -22.95851563 36.52980469 -22.55078125 35.74023438 C-20.29457204 31.56439798 -20.29457204 31.56439798 -19 30 C-18.36707031 29.89494141 -17.73414063 29.78988281 -17.08203125 29.68164062 C-14.24295854 28.75215059 -13.58468647 27.02883625 -12.25982666 24.4651947 C-11.95236511 23.83601639 -11.64490356 23.20683807 -11.328125 22.55859375 C-11.00084412 21.91632339 -10.67356323 21.27405304 -10.33636475 20.61231995 C-9.29449324 18.56035803 -8.27215852 16.49934113 -7.25 14.4375 C-6.5468385 13.04428241 -5.84242602 11.65169544 -5.13671875 10.25976562 C-3.4098804 6.84699046 -1.7004999 3.42596997 0 0 Z " fill="#89C5DB" transform="translate(412,194)"/>
<path d="M0 0 C6.60189418 -0.07612856 13.20367494 -0.12863283 19.8059082 -0.16479492 C22.05139394 -0.17987182 24.29685029 -0.20033653 26.54223633 -0.22631836 C29.77172099 -0.26274918 33.00081594 -0.27973755 36.23046875 -0.29296875 C37.23272995 -0.30845261 38.23499115 -0.32393646 39.2676239 -0.33988953 C45.83292727 -0.34147113 49.26499727 0.36105326 54.09175205 5.01828766 C56.76682074 9.19818751 56.60177179 12.63119007 56.60887146 17.50158691 C56.62569491 18.46388922 56.64251836 19.42619153 56.65985161 20.41765451 C56.71097369 23.64632059 56.73341547 26.87453038 56.75561523 30.10351562 C56.78559428 32.41859309 56.81704871 34.73365186 56.84986877 37.0486908 C56.94961738 44.66770574 57.00593529 52.28678652 57.05859375 59.90625 C57.07873336 62.54067568 57.0989829 65.17510053 57.1193409 67.80952454 C57.20117334 78.79331238 57.27242081 89.77707628 57.31295681 100.76110077 C57.32365298 103.61107944 57.33445853 106.46105764 57.34545898 109.31103516 C57.34818088 110.01924032 57.35090277 110.72744549 57.35370714 111.45711142 C57.3996578 122.84957829 57.52419158 134.23972329 57.68244516 145.63112742 C57.84432814 157.38248261 57.93166286 169.13266856 57.95036274 180.88513517 C57.9626201 187.46100661 58.00693717 194.03373955 58.13113213 200.6085968 C58.64116879 228.97243849 58.08616477 251.85857303 42.50379843 276.26763928 C34.0016685 289.63877676 35.04836537 302.89199485 36.3125 318.3125 C36.46856481 321.03357344 36.59292789 323.75581102 36.71679688 326.47851562 C37.03650941 332.99569381 37.46849918 339.49683047 38 346 C42.61277527 345.2313668 45.39776826 343.62742044 49.25 340.9375 C54.92442882 337 54.92442882 337 56 337 C56.10871967 339.54283234 56.18762401 342.08095088 56.25 344.625 C56.28351563 345.33785156 56.31703125 346.05070312 56.3515625 346.78515625 C56.44692933 351.98264845 55.50226482 354.92218817 52 359 C49.09245226 360.79344136 46.92569443 361.24862606 43.53277588 361.24050903 C42.19929863 361.24463303 42.19929863 361.24463303 40.83888245 361.24884033 C39.871436 361.24164978 38.90398956 361.23445923 37.90722656 361.22705078 C36.88251755 361.22734283 35.85780853 361.22763489 34.80204773 361.22793579 C31.4148207 361.22654239 28.02781361 361.21098046 24.640625 361.1953125 C22.29221721 361.19158241 19.94380786 361.18873542 17.59539795 361.18673706 C11.41399846 361.17910028 5.23269293 361.15945131 -0.94866943 361.1373291 C-7.25613128 361.1168717 -13.5636083 361.10773556 -19.87109375 361.09765625 C-32.24743712 361.07620554 -44.62371075 361.04206897 -57 361 C-57 360.67 -57 360.34 -57 360 C-56.04199997 359.98969254 -55.08399994 359.97938507 -54.0969696 359.96876526 C-45.076844 359.87108711 -36.05678825 359.7683583 -27.03677654 359.66066074 C-22.39929777 359.60545295 -17.76181267 359.55203632 -13.12426758 359.50268555 C-8.65033756 359.45501045 -4.17648447 359.40266641 0.29735374 359.34705925 C2.00579098 359.32664997 3.7142493 359.30793452 5.42272377 359.29092598 C7.81224832 359.26685042 10.20162757 359.23680015 12.59106445 359.20532227 C13.30028549 359.1995668 14.00950653 359.19381134 14.74021912 359.18788147 C17.76299652 359.14249989 20.10820756 358.96393081 23 358 C24.7833311 353.9160899 25.25125555 350.34544515 25.25726891 345.92171478 C25.26694224 344.11713861 25.26694224 344.11713861 25.276811 342.27610636 C25.2737138 340.96308086 25.2706166 339.65005536 25.26742554 338.29724121 C25.27116348 336.88153005 25.27576558 335.46582094 25.28115618 334.05011511 C25.2933833 330.16449134 25.29312607 326.27895369 25.29076743 322.39331508 C25.2903592 318.20102408 25.30139881 314.00876068 25.31088257 309.81648254 C25.3274908 301.60563394 25.33299199 293.39481406 25.33410732 285.18395007 C25.33505766 278.51127566 25.33916725 271.83861074 25.34550858 265.16593933 C25.36311872 246.25100515 25.37234753 227.33609366 25.37084763 208.42115122 C25.37072776 206.89179514 25.37072776 206.89179514 25.37060547 205.33154297 C25.37048283 203.80032198 25.37048283 203.80032198 25.37035771 202.23816723 C25.36954436 185.68502201 25.38869489 169.13196769 25.4168822 152.57884878 C25.44559114 135.58549688 25.45942367 118.59218935 25.45769465 101.59881258 C25.45703017 92.05689943 25.46254811 82.51508163 25.48405075 72.97319031 C25.50223613 64.85131474 25.50663151 56.72957777 25.4930319 48.60769069 C25.4864895 44.46311327 25.4864308 40.31880196 25.5037384 36.17424965 C25.5194178 32.38064471 25.51665865 28.58751802 25.49917014 24.79392511 C25.49462852 22.77056713 25.50979753 20.74719462 25.52564943 18.72389364 C25.51755442 10.0406851 25.51755442 10.0406851 21 3 C18.70691037 1.85345518 17.20090344 1.80270883 14.6484375 1.68359375 C13.37226563 1.62075195 13.37226563 1.62075195 12.0703125 1.55664062 C11.18085938 1.51732422 10.29140625 1.47800781 9.375 1.4375 C8.4778125 1.39431641 7.580625 1.35113281 6.65625 1.30664062 C4.43765717 1.20043139 2.2189512 1.09838806 0 1 C0 0.67 0 0.34 0 0 Z " fill="#DCC8AB" transform="translate(276,91)"/>
<path d="M0 0 C3.21077289 2.38843791 5.78105598 4.61499166 8.09765625 7.8984375 C13.14487857 11.66483205 18.64591123 10.84232548 24.76953125 10.78125 C27.20827725 10.76465989 29.64721655 10.7652212 32.0859375 10.78515625 C33.16431885 10.77427979 34.2427002 10.76340332 35.35375977 10.75219727 C38.20703125 11.21875 38.20703125 11.21875 40.55639648 12.80639648 C42.7902609 16.07112276 42.72409145 18.31131763 42.73828125 22.25 C42.74210815 22.92293091 42.74593506 23.59586182 42.74987793 24.28918457 C42.75259255 25.7079417 42.74526259 27.12674927 42.72851562 28.54541016 C42.707094 30.71240203 42.72832663 32.87607951 42.75390625 35.04296875 C42.75126289 36.42448646 42.74613772 37.8060021 42.73828125 39.1875 C42.73376953 40.43982422 42.72925781 41.69214844 42.72460938 42.98242188 C42.1018301 46.87655496 41.26591456 47.81366425 38.20703125 50.21875 C35.55240536 50.71932125 35.55240536 50.71932125 32.46922302 50.71995544 C31.29849243 50.72978958 30.12776184 50.73962372 28.92155457 50.74975586 C27.64089615 50.74008789 26.36023773 50.73041992 25.04077148 50.72045898 C23.67560265 50.72424284 22.31043766 50.72974343 20.94528198 50.73683167 C17.24072684 50.75079392 13.53663573 50.7396121 9.83210635 50.72312045 C5.95643163 50.70927281 2.08078392 50.71572959 -1.79490662 50.71925354 C-8.30239342 50.72195558 -14.80969576 50.70847964 -21.31713867 50.68530273 C-28.84374818 50.65868176 -36.37004949 50.6569494 -43.89668995 50.6686911 C-51.13476419 50.67946416 -58.37272679 50.67328628 -65.61079216 50.65913582 C-68.69249036 50.65337301 -71.77410694 50.65346096 -74.85580635 50.65820122 C-78.48301129 50.66296802 -82.109878 50.65288214 -85.73701859 50.63124657 C-87.70566948 50.62301365 -89.67436464 50.62953498 -91.64302063 50.63644409 C-93.39488678 50.62158714 -93.39488678 50.62158714 -95.18214417 50.60643005 C-96.70775388 50.60278521 -96.70775388 50.60278521 -98.264184 50.59906673 C-100.79296875 50.21875 -100.79296875 50.21875 -102.61938381 48.9021616 C-104.54979713 46.1331416 -104.21976654 43.06730209 -104.19140625 39.8125 C-104.19427643 39.09139038 -104.19714661 38.37028076 -104.20010376 37.62731934 C-104.20214327 36.10424005 -104.19662122 34.5811345 -104.18408203 33.05810547 C-104.16802518 30.72694322 -104.18393285 28.39751458 -104.203125 26.06640625 C-104.20114255 24.58593367 -104.19729882 23.10546218 -104.19140625 21.625 C-104.19747894 20.9280603 -104.20355164 20.23112061 -104.20980835 19.51306152 C-104.16974295 16.75584492 -104.06490472 14.6785669 -102.64453125 12.27685547 C-99.96828677 10.74747208 -97.83971316 10.86683386 -94.76953125 10.8828125 C-93.58359375 10.86992188 -92.39765625 10.85703125 -91.17578125 10.84375 C-88.6783732 10.84375 -86.18095262 10.8515137 -83.68359375 10.8671875 C-76.74690988 10.96561214 -76.74690988 10.96561214 -70.77734375 7.9375 C-70.1225 7.0403125 -69.46765625 6.143125 -68.79296875 5.21875 C-63.1726835 0.69267958 -57.64007964 -3.41109623 -50.79296875 -5.78125 C-49.81714844 -6.12414063 -48.84132812 -6.46703125 -47.8359375 -6.8203125 C-32.10747788 -11.22494292 -13.67961845 -8.72434408 0 0 Z " fill="#ED6C79" transform="translate(228.79296875,43.78125)"/>
<path d="M0 0 C8.04148775 -0.11344229 16.08234235 -0.20496683 24.12441826 -0.25906086 C27.85961769 -0.28503731 31.59423631 -0.32021169 35.32910156 -0.37719727 C38.94071191 -0.4319507 42.55176743 -0.46151017 46.16376114 -0.47438622 C47.53438158 -0.48354931 48.90497531 -0.50144105 50.27535629 -0.52865028 C59.74804316 -0.70906985 67.73471935 0.06646129 74.90524292 6.78520203 C80.32480462 12.6293459 82.44650046 18.36748382 82.45497131 26.32243347 C82.46741251 27.14563798 82.47985371 27.96884248 82.49267191 28.81699258 C82.53031328 31.56837708 82.54664983 34.31945617 82.56274414 37.07104492 C82.58482672 39.047813 82.60801253 41.02456902 82.63221741 43.00131226 C82.70560218 49.49425642 82.7467028 55.98723839 82.78515625 62.48046875 C82.7999343 64.72539137 82.81480634 66.97031337 82.82977104 69.21523476 C82.88991761 78.57008033 82.94184089 87.92490743 82.97176456 97.27990246 C83.01463679 110.62551757 83.10487404 123.96878568 83.26393038 137.31353873 C83.37222317 146.72632172 83.42544454 156.13848686 83.43924993 165.55187684 C83.44882472 171.15679925 83.48085181 176.75927518 83.57191658 182.36351585 C83.95050411 206.87203073 83.97488508 226.44433827 69.78388786 247.24018288 C66.75151062 251.93151287 64.39043001 256.95899891 62 262 C61.67 262 61.34 262 61 262 C60.99853344 260.83747711 60.99706688 259.67495422 60.99555588 258.47720337 C60.9598388 230.86911817 60.90357586 203.26113689 60.82207905 175.65314728 C60.81206183 172.25362857 60.80221766 168.85410937 60.79248047 165.45458984 C60.7905391 164.77781877 60.78859772 164.1010477 60.78659752 163.40376842 C60.75559297 152.45164875 60.73860119 141.49955003 60.72680578 130.54739475 C60.71438619 119.3059356 60.68656995 108.06458551 60.64538693 96.82318878 C60.62274718 90.51052669 60.60709084 84.19802123 60.60811615 77.88531494 C60.60886126 71.94272759 60.59096988 66.00048682 60.55883217 60.05798912 C60.55031865 57.87796293 60.54859305 55.69789793 60.55419731 53.51786232 C60.56083663 50.5381149 60.54291742 47.55947039 60.51898193 44.57983398 C60.52674235 43.71989145 60.53450277 42.85994892 60.54249835 41.97394753 C60.46204062 36.30445958 59.39261759 31.6503329 56 27 C51.62757576 23.55196894 46.95774418 21.90055948 41.43676758 21.79467773 C40.51603958 21.77473251 39.59531158 21.75478729 38.64668274 21.73423767 C37.65597275 21.71752518 36.66526276 21.70081268 35.64453125 21.68359375 C34.11937141 21.6524221 34.11937141 21.6524221 32.56340027 21.62062073 C29.31316937 21.55519952 26.06285723 21.49627463 22.8125 21.4375 C20.61001762 21.39430773 18.40754347 21.35069321 16.20507812 21.30664062 C10.80346751 21.19873057 5.40179583 21.09960157 0 21 C0 14.07 0 7.14 0 0 Z " fill="#86786E" transform="translate(277,64)"/>
<path d="M0 0 C7.60193669 5.40729062 12.72041924 12.19968411 15.3125 21.25 C16.74249119 32.59767199 15.07177751 42.13856224 8.62109375 51.77734375 C3.05009936 58.76725529 -4.30890439 62.4571348 -12.6875 65.25 C-24.35908209 66.46550204 -32.80152213 65.06704835 -42.6875 58.25 C-50.91149051 51.3070049 -55.00798113 42.12573511 -55.92578125 31.48828125 C-56.19245926 20.97555322 -53.3739901 13.39461196 -46.671875 5.2890625 C-43.39047488 1.9172301 -39.80471597 -0.50424584 -35.6875 -2.75 C-35.07390625 -3.0903125 -34.4603125 -3.430625 -33.828125 -3.78125 C-22.80035168 -8.87099153 -9.88931303 -6.14385893 0 0 Z " fill="#D5DE56" transform="translate(217.6875,136.75)"/>
<path d="M0 0 C3.25370314 2.43055513 6.13241307 5.13241307 9 8 C9.721875 7.154375 10.44375 6.30875 11.1875 5.4375 C14 3 14 3 16.8125 3.1875 C17.534375 3.455625 18.25625 3.72375 19 4 C18.68857732 7.63326455 18.26826947 8.76552177 15.45703125 11.22265625 C12.68442327 13.81942442 12.68442327 13.81942442 12.6171875 17.453125 C12.70226562 18.70609375 12.78734375 19.9590625 12.875 21.25 C13.20472361 30.20676824 12.07641911 35.82558823 6.3125 42.8125 C0.61350029 48.83745725 -6.10027987 52.07212382 -14.4375 52.4375 C-22.39045411 52.36038044 -28.92559799 49.44757094 -34.98046875 44.32421875 C-41.7827102 37.01810756 -42.57381441 29.2252051 -42.34375 19.5625 C-41.63153683 12.1813817 -38.27834349 7.48925653 -32.890625 2.54296875 C-23.66538155 -4.98589729 -10.50769763 -5.62912373 0 0 Z " fill="#41382E" transform="translate(143,372)"/>
<path d="M0 0 C3.25370314 2.43055513 6.13241307 5.13241307 9 8 C9.721875 7.154375 10.44375 6.30875 11.1875 5.4375 C14 3 14 3 16.8125 3.1875 C17.534375 3.455625 18.25625 3.72375 19 4 C18.68857732 7.63326455 18.26826947 8.76552177 15.45703125 11.22265625 C12.68442327 13.81942442 12.68442327 13.81942442 12.6171875 17.453125 C12.70226562 18.70609375 12.78734375 19.9590625 12.875 21.25 C13.20472361 30.20676824 12.07641911 35.82558823 6.3125 42.8125 C0.61350029 48.83745725 -6.10027987 52.07212382 -14.4375 52.4375 C-22.39045411 52.36038044 -28.92559799 49.44757094 -34.98046875 44.32421875 C-41.7827102 37.01810756 -42.57381441 29.2252051 -42.34375 19.5625 C-41.63153683 12.1813817 -38.27834349 7.48925653 -32.890625 2.54296875 C-23.66538155 -4.98589729 -10.50769763 -5.62912373 0 0 Z " fill="#41382E" transform="translate(143,304)"/>
<path d="M0 0 C3.25370314 2.43055513 6.13241307 5.13241307 9 8 C9.721875 7.154375 10.44375 6.30875 11.1875 5.4375 C14 3 14 3 16.8125 3.1875 C17.534375 3.455625 18.25625 3.72375 19 4 C18.68857732 7.63326455 18.26826947 8.76552177 15.45703125 11.22265625 C12.68442327 13.81942442 12.68442327 13.81942442 12.6171875 17.453125 C12.70226562 18.70609375 12.78734375 19.9590625 12.875 21.25 C13.20472361 30.20676824 12.07641911 35.82558823 6.3125 42.8125 C0.61350029 48.83745725 -6.10027987 52.07212382 -14.4375 52.4375 C-22.39045411 52.36038044 -28.92559799 49.44757094 -34.98046875 44.32421875 C-41.7827102 37.01810756 -42.57381441 29.2252051 -42.34375 19.5625 C-41.63153683 12.1813817 -38.27834349 7.48925653 -32.890625 2.54296875 C-23.66538155 -4.98589729 -10.50769763 -5.62912373 0 0 Z " fill="#41382E" transform="translate(143,236)"/>
<path d="M0 0 C3.45227796 1.31651811 4.47594067 4.85146288 6 8.01269531 C9.69531353 15.5043661 13.04685981 21.1912228 21 24.76269531 C23.31721862 25.533572 25.63410065 26.14756148 28 26.76269531 C29 27.76269531 29 27.76269531 29.0625 30.32519531 C29.041875 31.12957031 29.02125 31.93394531 29 32.76269531 C27.99839844 33.25898437 26.99679687 33.75527344 25.96484375 34.26660156 C16.5087536 39.05638906 8.1096654 43.38038273 4 53.76269531 C3.25715243 56.08526937 2.61414097 58.40061468 2 60.76269531 C-0.475 61.25769531 -0.475 61.25769531 -3 61.76269531 C-3.30292969 60.98925781 -3.60585938 60.21582031 -3.91796875 59.41894531 C-9.41808634 45.69312079 -9.41808634 45.69312079 -20 35.76269531 C-23.28070762 34.49166093 -26.57279855 33.54881396 -30 32.76269531 C-30 31.11269531 -30 29.46269531 -30 27.76269531 C-29.2265625 27.47136719 -28.453125 27.18003906 -27.65625 26.87988281 C-19.20025213 23.55190345 -11.04969982 20.16440943 -6.734375 11.70410156 C-5.61083257 8.73388567 -5.01159414 5.71004776 -4.4921875 2.58300781 C-4.32976562 1.98230469 -4.16734375 1.38160156 -4 0.76269531 C-2 -0.23730469 -2 -0.23730469 0 0 Z " fill="#3B3229" transform="translate(453,49.2373046875)"/>
<path d="M0 0 C5.29886622 4.11138246 8.56235262 8.63542343 9.5390625 15.3515625 C9.8752528 23.04055996 7.54605833 28.9742896 4.16015625 35.74609375 C-0.04992805 35.11955826 -3.34588063 33.67339547 -7.13671875 31.76171875 C-7.72978821 31.46424744 -8.32285767 31.16677612 -8.93389893 30.86029053 C-10.18586403 30.23095806 -11.43639127 29.59875793 -12.68554688 28.96386719 C-14.56729436 28.00755347 -16.45306818 27.05962946 -18.33984375 26.11328125 C-24.92175665 22.80081528 -31.44176517 19.40274678 -37.83984375 15.74609375 C-37.53889681 9.72715498 -34.7978195 6.03979066 -30.83984375 1.74609375 C-21.87716408 -6.09625096 -9.92918992 -6.76702752 0 0 Z " fill="#88C4DA" transform="translate(465.83984375,150.25390625)"/>
<path d="M0 0 C7.60193669 5.40729062 12.72041924 12.19968411 15.3125 21.25 C16.74249119 32.59767199 15.07177751 42.13856224 8.62109375 51.77734375 C3.05009936 58.76725529 -4.30890439 62.4571348 -12.6875 65.25 C-24.35908209 66.46550204 -32.80152213 65.06704835 -42.6875 58.25 C-50.91149051 51.3070049 -55.00798113 42.12573511 -55.92578125 31.48828125 C-56.19245926 20.97555322 -53.3739901 13.39461196 -46.671875 5.2890625 C-43.39047488 1.9172301 -39.80471597 -0.50424584 -35.6875 -2.75 C-35.07390625 -3.0903125 -34.4603125 -3.430625 -33.828125 -3.78125 C-22.80035168 -8.87099153 -9.88931303 -6.14385893 0 0 Z M-43.6875 11.25 C-49.69814225 19.00056501 -50.59588912 26.68316772 -49.6875 36.25 C-47.53061814 44.72254193 -41.70195602 51.52703097 -34.4375 56.1875 C-27.30387829 60.39633681 -18.71280515 60.48123322 -10.75390625 58.53125 C-1.19669611 54.92365774 4.03450133 49.02453059 8.42578125 39.94921875 C10.79534327 32.7361467 10.46160055 23.62747355 7.25 16.75 C2.20017547 8.21068998 -4.3669287 3.3568571 -13.6875 0.25 C-26.48844615 -0.83152038 -34.79131735 1.99070785 -43.6875 11.25 Z " fill="#40372E" transform="translate(217.6875,136.75)"/>
<path d="M0 0 C3.58453796 2.19806573 6.64785056 4.87238657 9.4453125 8.01953125 C8.0868923 11.0628589 6.56068226 13.14262276 4.1875 15.47265625 C3.56230469 16.09140625 2.93710938 16.71015625 2.29296875 17.34765625 C1.64199219 17.981875 0.99101562 18.61609375 0.3203125 19.26953125 C-0.33839844 19.91921875 -0.99710938 20.56890625 -1.67578125 21.23828125 C-3.29765393 22.83664852 -4.9240156 24.43015022 -6.5546875 26.01953125 C-11.5283086 21.8594194 -16.08582213 17.49528722 -20.5390625 12.77734375 C-22.4857776 10.69089982 -22.4857776 10.69089982 -25.5546875 11.01953125 C-24.76329654 17.23856769 -21.09889119 20.13812865 -16.8046875 24.39453125 C-16.08796875 25.14347656 -15.37125 25.89242188 -14.6328125 26.6640625 C-13.9315625 27.36660156 -13.2303125 28.06914062 -12.5078125 28.79296875 C-11.87004883 29.43669434 -11.23228516 30.08041992 -10.57519531 30.74365234 C-8.59827473 32.25715177 -8.59827473 32.25715177 -6.04101562 31.93237305 C-3.23159804 30.90091072 -1.87986334 29.79457656 0.1796875 27.640625 C0.83582031 26.96708984 1.49195313 26.29355469 2.16796875 25.59960938 C3.17150391 24.5390332 3.17150391 24.5390332 4.1953125 23.45703125 C5.54232287 22.05801766 6.89117766 20.66077674 8.2421875 19.265625 C8.83354492 18.64357178 9.42490234 18.02151855 10.03417969 17.38061523 C11.4453125 16.01953125 11.4453125 16.01953125 12.4453125 16.01953125 C13.04634296 23.47230889 11.94813089 28.91226033 7.4453125 35.01953125 C1.43512888 40.21923477 -4.01654922 42.40809585 -11.92578125 42.29296875 C-18.76830276 41.58126518 -23.10202212 37.99487418 -27.328125 32.80078125 C-31.58757075 26.61508933 -31.35980364 20.36416219 -30.5546875 13.01953125 C-28.33557927 7.02243711 -24.18471465 3.27293411 -18.82421875 -0.0546875 C-13.24832327 -2.3291922 -5.58255278 -2.14253937 0 0 Z " fill="#D0D654" transform="translate(137.5546875,375.98046875)"/>
<path d="M0 0 C3.58453796 2.19806573 6.64785056 4.87238657 9.4453125 8.01953125 C8.0868923 11.0628589 6.56068226 13.14262276 4.1875 15.47265625 C3.56230469 16.09140625 2.93710938 16.71015625 2.29296875 17.34765625 C1.64199219 17.981875 0.99101562 18.61609375 0.3203125 19.26953125 C-0.33839844 19.91921875 -0.99710938 20.56890625 -1.67578125 21.23828125 C-3.29765393 22.83664852 -4.9240156 24.43015022 -6.5546875 26.01953125 C-11.5283086 21.8594194 -16.08582213 17.49528722 -20.5390625 12.77734375 C-22.4857776 10.69089982 -22.4857776 10.69089982 -25.5546875 11.01953125 C-24.76329654 17.23856769 -21.09889119 20.13812865 -16.8046875 24.39453125 C-16.08796875 25.14347656 -15.37125 25.89242188 -14.6328125 26.6640625 C-13.9315625 27.36660156 -13.2303125 28.06914062 -12.5078125 28.79296875 C-11.87004883 29.43669434 -11.23228516 30.08041992 -10.57519531 30.74365234 C-8.59827473 32.25715177 -8.59827473 32.25715177 -6.04101562 31.93237305 C-3.23159804 30.90091072 -1.87986334 29.79457656 0.1796875 27.640625 C0.83582031 26.96708984 1.49195313 26.29355469 2.16796875 25.59960938 C3.17150391 24.5390332 3.17150391 24.5390332 4.1953125 23.45703125 C5.54232287 22.05801766 6.89117766 20.66077674 8.2421875 19.265625 C8.83354492 18.64357178 9.42490234 18.02151855 10.03417969 17.38061523 C11.4453125 16.01953125 11.4453125 16.01953125 12.4453125 16.01953125 C13.04634296 23.47230889 11.94813089 28.91226033 7.4453125 35.01953125 C1.43512888 40.21923477 -4.01654922 42.40809585 -11.92578125 42.29296875 C-18.76830276 41.58126518 -23.10202212 37.99487418 -27.328125 32.80078125 C-31.58757075 26.61508933 -31.35980364 20.36416219 -30.5546875 13.01953125 C-28.33557927 7.02243711 -24.18471465 3.27293411 -18.82421875 -0.0546875 C-13.24832327 -2.3291922 -5.58255278 -2.14253937 0 0 Z " fill="#D0D654" transform="translate(137.5546875,307.98046875)"/>
<path d="M0 0 C3.58453796 2.19806573 6.64785056 4.87238657 9.4453125 8.01953125 C8.0868923 11.0628589 6.56068226 13.14262276 4.1875 15.47265625 C3.56230469 16.09140625 2.93710938 16.71015625 2.29296875 17.34765625 C1.64199219 17.981875 0.99101562 18.61609375 0.3203125 19.26953125 C-0.33839844 19.91921875 -0.99710938 20.56890625 -1.67578125 21.23828125 C-3.29765393 22.83664852 -4.9240156 24.43015022 -6.5546875 26.01953125 C-11.5283086 21.8594194 -16.08582213 17.49528722 -20.5390625 12.77734375 C-22.4857776 10.69089982 -22.4857776 10.69089982 -25.5546875 11.01953125 C-24.76329654 17.23856769 -21.09889119 20.13812865 -16.8046875 24.39453125 C-16.08796875 25.14347656 -15.37125 25.89242188 -14.6328125 26.6640625 C-13.9315625 27.36660156 -13.2303125 28.06914062 -12.5078125 28.79296875 C-11.87004883 29.43669434 -11.23228516 30.08041992 -10.57519531 30.74365234 C-8.59827473 32.25715177 -8.59827473 32.25715177 -6.04101562 31.93237305 C-3.23159804 30.90091072 -1.87986334 29.79457656 0.1796875 27.640625 C0.83582031 26.96708984 1.49195313 26.29355469 2.16796875 25.59960938 C3.17150391 24.5390332 3.17150391 24.5390332 4.1953125 23.45703125 C5.54232287 22.05801766 6.89117766 20.66077674 8.2421875 19.265625 C8.83354492 18.64357178 9.42490234 18.02151855 10.03417969 17.38061523 C11.4453125 16.01953125 11.4453125 16.01953125 12.4453125 16.01953125 C13.04634296 23.47230889 11.94813089 28.91226033 7.4453125 35.01953125 C1.43512888 40.21923477 -4.01654922 42.40809585 -11.92578125 42.29296875 C-18.76830276 41.58126518 -23.10202212 37.99487418 -27.328125 32.80078125 C-31.58757075 26.61508933 -31.35980364 20.36416219 -30.5546875 13.01953125 C-28.33557927 7.02243711 -24.18471465 3.27293411 -18.82421875 -0.0546875 C-13.24832327 -2.3291922 -5.58255278 -2.14253937 0 0 Z " fill="#D0D654" transform="translate(137.5546875,239.98046875)"/>
<path d="M0 0 C4.36011194 1.35490417 8.34597984 3.04440049 12.4296875 5.08203125 C13.02371368 5.37808762 13.61773987 5.67414398 14.22976685 5.97917175 C15.4795194 6.60337139 16.72827639 7.22956794 17.97607422 7.85766602 C19.8600309 8.80497311 21.74807586 9.74371802 23.63671875 10.68164062 C29.96058675 13.84044493 36.09096804 17.11247898 42 21 C40.3341708 27.16356805 37.12194714 32.48259656 34 38 C29.07921042 37.36214235 25.06268754 35.28213254 20.671875 33.10546875 C19.88226379 32.71684158 19.09265259 32.32821442 18.27911377 31.92781067 C16.61676477 31.10639522 14.95604665 30.281672 13.296875 29.45385742 C10.75171038 28.18835043 8.19665368 26.944559 5.640625 25.70117188 C4.02539 24.89974957 2.41078382 24.09705839 0.796875 23.29296875 C0.0302655 22.92302292 -0.73634399 22.55307709 -1.52618408 22.17192078 C-6.81767328 19.49179867 -6.81767328 19.49179867 -7.7474823 16.98377991 C-8.06278994 14.50672204 -7.55917938 13.49022781 -6.34765625 11.328125 C-5.98349609 10.66425781 -5.61933594 10.00039062 -5.24414062 9.31640625 C-4.85419922 8.63449219 -4.46425781 7.95257813 -4.0625 7.25 C-3.48338867 6.20392578 -3.48338867 6.20392578 -2.89257812 5.13671875 C-1.93926363 3.4183988 -0.97104654 1.70836196 0 0 Z " fill="#D1D654" transform="translate(424,171)"/>
<path d="M0 0 C2.31640625 0.171875 2.31640625 0.171875 5 1 C6.58984375 3.328125 6.58984375 3.328125 7.9375 6.25 C11.7954431 13.8477859 16.09616551 16.99654289 24 20 C23.796875 22.3125 23.796875 22.3125 23 25 C20.890625 26.625 20.890625 26.625 18.25 28 C12.25939904 31.37558827 8.46553656 33.99343609 6.4375 40.75 C6.25058594 41.52859375 6.06367188 42.3071875 5.87109375 43.109375 C5 45 5 45 3.09765625 45.953125 C1 46 1 46 -0.640625 44.86328125 C-2.21748315 42.7018981 -2.92243525 40.72874837 -3.75 38.1875 C-5.74077951 32.98259937 -8.25584646 29.91790949 -13 27 C-16.24618446 25.60794936 -16.24618446 25.60794936 -19 25 C-19.33 23.35 -19.66 21.7 -20 20 C-19.18015625 19.62488281 -18.3603125 19.24976562 -17.515625 18.86328125 C-16.43796875 18.35152344 -15.3603125 17.83976562 -14.25 17.3125 C-13.18265625 16.81363281 -12.1153125 16.31476562 -11.015625 15.80078125 C-6.21592958 12.93464189 -3.87196455 9.26505803 -1.75 4.1875 C-1.24726563 3.00220703 -1.24726563 3.00220703 -0.734375 1.79296875 C-0.49203125 1.20128906 -0.2496875 0.60960938 0 0 Z " fill="#3B322A" transform="translate(407,30)"/>
<path d="M0 0 C4.20071253 1.40023751 7.51202115 2.65410957 11.3359375 4.6796875 C12.31820313 5.19660156 13.30046875 5.71351563 14.3125 6.24609375 C15.8284375 7.05240234 15.8284375 7.05240234 17.375 7.875 C19.38248771 8.93551086 21.39029435 9.99541827 23.3984375 11.0546875 C24.34944336 11.55709961 25.30044922 12.05951172 26.28027344 12.57714844 C29.83000653 14.43422604 33.40832036 16.22559025 37 18 C35.60846965 22.17459104 32.65030067 23.55083246 29.125 25.875 C27.67819689 26.8473758 26.23159121 27.8200454 24.78515625 28.79296875 C23.62910889 29.56519775 23.62910889 29.56519775 22.44970703 30.35302734 C19.86888334 32.08815158 17.30584735 33.84723508 14.74609375 35.61328125 C13.45131104 36.50587646 13.45131104 36.50587646 12.13037109 37.41650391 C10.43093196 38.58856432 8.73203028 39.76140445 7.03369141 40.93505859 C6.2607373 41.46566895 5.4877832 41.9962793 4.69140625 42.54296875 C4.00248291 43.01758545 3.31355957 43.49220215 2.60375977 43.98120117 C1 45 1 45 0 45 C0 30.15 0 15.3 0 0 Z " fill="#86786E" transform="translate(319,384)"/>
<path d="M0 0 C2.40625 0.140625 2.40625 0.140625 5 1 C6.40625 3.109375 6.40625 3.109375 7.5 5.75 C11.23215001 13.83632503 15.91148688 16.84565611 24 20 C24 21.65 24 23.3 24 25 C23.27554688 25.35191406 22.55109375 25.70382813 21.8046875 26.06640625 C13.81643156 30.14574228 8.40124773 33.91625018 5.125 42.4375 C4.75375 43.613125 4.3825 44.78875 4 46 C1.625 45.79296875 1.625 45.79296875 -1 45 C-2.1875 42.92578125 -2.1875 42.92578125 -3 40.3125 C-4.97602763 34.83741948 -6.74968935 30.57792859 -12.28515625 27.890625 C-13.87598798 27.23513174 -15.48421422 26.61972684 -17.109375 26.0546875 C-19 25 -19 25 -19.765625 22.8828125 C-19.84296875 22.26148437 -19.9203125 21.64015625 -20 21 C-17.72491902 19.57807439 -15.48070482 18.21417542 -13.02734375 17.12109375 C-8.09478304 14.91757598 -5.53795959 12.97830535 -3 8 C-2.27833809 5.68308546 -1.59940471 3.35151077 -1 1 C-0.67 0.67 -0.34 0.34 0 0 Z " fill="#3B332A" transform="translate(407,83)"/>
<path d="M0 0 C0.8545021 0.00092179 1.70900419 0.00184359 2.58940029 0.00279331 C3.56681683 0.00141865 4.54423336 0.00004398 5.55126858 -0.00137234 C6.63235897 0.00222294 7.71344936 0.00581821 8.82730007 0.00952244 C10.52464039 0.0093034 10.52464039 0.0093034 12.25627041 0.00907993 C16.01686389 0.00977964 19.77740855 0.01757472 23.53799343 0.02539158 C26.13731261 0.02725555 28.73663215 0.02867955 31.33595181 0.0296793 C37.49122295 0.03311442 43.64647378 0.04100527 49.80173725 0.05102879 C56.80767064 0.06219089 63.81360485 0.06770062 70.81954491 0.07272422 C85.23481851 0.08318791 99.65007722 0.10078675 114.06533718 0.12304783 C114.44752485 1.7791944 114.7792882 3.44761807 115.06533718 5.12304783 C114.06533718 6.12304783 114.06533718 6.12304783 112.13067436 6.24609566 C111.27617227 6.24517386 110.42167017 6.24425207 109.54127407 6.24330235 C108.07514927 6.24536434 108.07514927 6.24536434 106.57940578 6.24746799 C105.49831539 6.24387272 104.417225 6.24027744 103.30337429 6.23657322 C101.60603397 6.23679226 101.60603397 6.23679226 99.87440395 6.23701572 C96.11381047 6.23631602 92.35326581 6.22852094 88.59268093 6.22070408 C85.99336175 6.2188401 83.39404222 6.2174161 80.79472256 6.21641636 C74.63945141 6.21298123 68.48420058 6.20509039 62.32893711 6.19506687 C55.32300373 6.18390477 48.31706951 6.17839504 41.31112945 6.17337143 C26.89585585 6.16290775 12.48059714 6.14530891 -1.93466282 6.12304783 C-2.31685049 4.46690126 -2.64861384 2.79847758 -2.93466282 1.12304783 C-1.93466282 0.12304783 -1.93466282 0.12304783 0 0 Z " fill="#3D332C" transform="translate(180.9346628189087,393.8769521713257)"/>
<path d="M0 0 C0.8545021 0.00092179 1.70900419 0.00184359 2.58940029 0.00279331 C3.56681683 0.00141865 4.54423336 0.00004398 5.55126858 -0.00137234 C6.63235897 0.00222294 7.71344936 0.00581821 8.82730007 0.00952244 C10.52464039 0.0093034 10.52464039 0.0093034 12.25627041 0.00907993 C16.01686389 0.00977964 19.77740855 0.01757472 23.53799343 0.02539158 C26.13731261 0.02725555 28.73663215 0.02867955 31.33595181 0.0296793 C37.49122295 0.03311442 43.64647378 0.04100527 49.80173725 0.05102879 C56.80767064 0.06219089 63.81360485 0.06770062 70.81954491 0.07272422 C85.23481851 0.08318791 99.65007722 0.10078675 114.06533718 0.12304783 C114.44752485 1.7791944 114.7792882 3.44761807 115.06533718 5.12304783 C114.06533718 6.12304783 114.06533718 6.12304783 112.13067436 6.24609566 C111.27617227 6.24517386 110.42167017 6.24425207 109.54127407 6.24330235 C108.07514927 6.24536434 108.07514927 6.24536434 106.57940578 6.24746799 C105.49831539 6.24387272 104.417225 6.24027744 103.30337429 6.23657322 C101.60603397 6.23679226 101.60603397 6.23679226 99.87440395 6.23701572 C96.11381047 6.23631602 92.35326581 6.22852094 88.59268093 6.22070408 C85.99336175 6.2188401 83.39404222 6.2174161 80.79472256 6.21641636 C74.63945141 6.21298123 68.48420058 6.20509039 62.32893711 6.19506687 C55.32300373 6.18390477 48.31706951 6.17839504 41.31112945 6.17337143 C26.89585585 6.16290775 12.48059714 6.14530891 -1.93466282 6.12304783 C-2.31685049 4.46690126 -2.64861384 2.79847758 -2.93466282 1.12304783 C-1.93466282 0.12304783 -1.93466282 0.12304783 0 0 Z " fill="#3D332C" transform="translate(180.9346628189087,325.8769521713257)"/>
<path d="M0 0 C0.8545021 0.00092179 1.70900419 0.00184359 2.58940029 0.00279331 C3.56681683 0.00141865 4.54423336 0.00004398 5.55126858 -0.00137234 C6.63235897 0.00222294 7.71344936 0.00581821 8.82730007 0.00952244 C10.52464039 0.0093034 10.52464039 0.0093034 12.25627041 0.00907993 C16.01686389 0.00977964 19.77740855 0.01757472 23.53799343 0.02539158 C26.13731261 0.02725555 28.73663215 0.02867955 31.33595181 0.0296793 C37.49122295 0.03311442 43.64647378 0.04100527 49.80173725 0.05102879 C56.80767064 0.06219089 63.81360485 0.06770062 70.81954491 0.07272422 C85.23481851 0.08318791 99.65007722 0.10078675 114.06533718 0.12304783 C114.44752485 1.7791944 114.7792882 3.44761807 115.06533718 5.12304783 C114.06533718 6.12304783 114.06533718 6.12304783 112.13067436 6.24609566 C111.27617227 6.24517386 110.42167017 6.24425207 109.54127407 6.24330235 C108.07514927 6.24536434 108.07514927 6.24536434 106.57940578 6.24746799 C105.49831539 6.24387272 104.417225 6.24027744 103.30337429 6.23657322 C101.60603397 6.23679226 101.60603397 6.23679226 99.87440395 6.23701572 C96.11381047 6.23631602 92.35326581 6.22852094 88.59268093 6.22070408 C85.99336175 6.2188401 83.39404222 6.2174161 80.79472256 6.21641636 C74.63945141 6.21298123 68.48420058 6.20509039 62.32893711 6.19506687 C55.32300373 6.18390477 48.31706951 6.17839504 41.31112945 6.17337143 C26.89585585 6.16290775 12.48059714 6.14530891 -1.93466282 6.12304783 C-2.31685049 4.46690126 -2.64861384 2.79847758 -2.93466282 1.12304783 C-1.93466282 0.12304783 -1.93466282 0.12304783 0 0 Z " fill="#3D332C" transform="translate(180.9346628189087,257.8769521713257)"/>
<path d="M0 0 C0.515625 0.66 1.03125 1.32 1.5625 2 C7.87009434 10.01756143 7.87009434 10.01756143 16 16 C16 16.66 16 17.32 16 18 C14.49810026 19.09822708 12.94623545 20.12849374 11.375 21.125 C6.95279792 24.1002776 4.05779643 27.05099209 1.15625 31.49609375 C0.7746875 31.99238281 0.393125 32.48867187 0 33 C-0.66 33 -1.32 33 -2 33 C-2.95938693 31.49705948 -3.84229624 29.94499493 -4.6875 28.375 C-7.1769395 24.03538447 -9.68235368 21.13261977 -13.6796875 18.15625 C-14.11539062 17.7746875 -14.55109375 17.393125 -15 17 C-15 16.34 -15 15.68 -15 15 C-13.49609375 13.80859375 -13.49609375 13.80859375 -11.4375 12.4375 C-6.64636723 8.99574152 -3.39603491 4.77567409 0 0 Z " fill="#D3DC55" transform="translate(453,63)"/>
<path d="M0 0 C0.721875 0.7425 1.44375 1.485 2.1875 2.25 C4.90711047 5.01267269 4.90711047 5.01267269 7.8125 7.1875 C8.534375 7.785625 9.25625 8.38375 10 9 C10 9.66 10 10.32 10 11 C8.28515625 12.4375 8.28515625 12.4375 6.0625 14 C3.01367363 16.04816804 3.01367363 16.04816804 1 19 C-3.02627499 17.65790834 -3.75169153 15.51298199 -6 12 C-6.97860413 10.97905242 -7.97411403 9.97342589 -9 9 C-8.51789063 8.60167969 -8.03578125 8.20335938 -7.5390625 7.79296875 C-6.90742188 7.26316406 -6.27578125 6.73335938 -5.625 6.1875 C-4.99851562 5.66542969 -4.37203125 5.14335938 -3.7265625 4.60546875 C-1.7778952 2.91774261 -1.7778952 2.91774261 0 0 Z " fill="#D1D955" transform="translate(409,96)"/>
<path d="M0 0 C3.33333333 3.33333333 6.66666667 6.66666667 10 10 C6.7 12.97 3.4 15.94 0 19 C-1.32 17.35 -2.64 15.7 -4 14 C-5.31494512 12.64852862 -6.64264858 11.30887458 -8 10 C-6.44303593 6.17836093 -3.96591316 3.81381505 -1 1 C-0.67 0.67 -0.34 0.34 0 0 Z " fill="#D2DA55" transform="translate(409,43)"/>
<path d="M0 0 C3.23087421 0.55704728 5.02361137 1.33187535 7 4 C7 5.32 7 6.64 7 8 C4.28324005 7.63287028 2.38936287 7.27255401 0.125 5.6875 C-1 4 -1 4 -0.6875 1.8125 C-0.460625 1.214375 -0.23375 0.61625 0 0 Z " fill="#53483F" transform="translate(227,195)"/>
<path d="M0 0 C0.598125 0.226875 1.19625 0.45375 1.8125 0.6875 C1.40566505 3.04714273 0.91435661 4.54684088 -0.5 6.5 C-2.1875 7.6875 -2.1875 7.6875 -4.375 7.375 C-4.973125 7.148125 -5.57125 6.92125 -6.1875 6.6875 C-5.78066505 4.32785727 -5.28935661 2.82815912 -3.875 0.875 C-2.1875 -0.3125 -2.1875 -0.3125 0 0 Z " fill="#50463C" transform="translate(167.1875,195.3125)"/>
<path d="M0 0 C0.598125 0.226875 1.19625 0.45375 1.8125 0.6875 C1.40566505 3.04714273 0.91435661 4.54684088 -0.5 6.5 C-2.1875 7.6875 -2.1875 7.6875 -4.375 7.375 C-4.973125 7.148125 -5.57125 6.92125 -6.1875 6.6875 C-5.78066505 4.32785727 -5.28935661 2.82815912 -3.875 0.875 C-2.1875 -0.3125 -2.1875 -0.3125 0 0 Z " fill="#51463D" transform="translate(232.1875,130.3125)"/>
<path d="M0 0 C2.35964273 0.40683495 3.85934088 0.89814339 5.8125 2.3125 C7 4 7 4 6.6875 6.1875 C6.460625 6.785625 6.23375 7.38375 6 8 C3.64035727 7.59316505 2.14065912 7.10185661 0.1875 5.6875 C-1 4 -1 4 -0.6875 1.8125 C-0.460625 1.214375 -0.23375 0.61625 0 0 Z " fill="#4E443B" transform="translate(162,130)"/>
<path d="M0 0 C2.0625 0.4375 2.0625 0.4375 4 1 C4 3.31 4 5.62 4 8 C2.0625 8.5625 2.0625 8.5625 0 9 C-1 8 -1 8 -1.125 4.5 C-1 1 -1 1 0 0 Z " fill="#4E443A" transform="translate(196,208)"/>
<path d="M0 0 C1.134375 0.020625 2.26875 0.04125 3.4375 0.0625 C4 2 4 2 4.4375 4.0625 C3.4375 5.0625 3.4375 5.0625 -0.125 5.125 C-1.259375 5.104375 -2.39375 5.08375 -3.5625 5.0625 C-4.125 3.125 -4.125 3.125 -4.5625 1.0625 C-3.5625 0.0625 -3.5625 0.0625 0 0 Z " fill="#4F453B" transform="translate(243.5625,163.9375)"/>
<path d="M0 0 C1.134375 0.020625 2.26875 0.04125 3.4375 0.0625 C4 2 4 2 4.4375 4.0625 C3.4375 5.0625 3.4375 5.0625 -0.125 5.125 C-1.259375 5.104375 -2.39375 5.08375 -3.5625 5.0625 C-4.125 3.125 -4.125 3.125 -4.5625 1.0625 C-3.5625 0.0625 -3.5625 0.0625 0 0 Z " fill="#4C4239" transform="translate(151.5625,163.9375)"/>
<path d="M0 0 C2.0625 0.4375 2.0625 0.4375 4 1 C4 3.31 4 5.62 4 8 C2.0625 8.5625 2.0625 8.5625 0 9 C-1 8 -1 8 -1.125 4.5 C-1 1 -1 1 0 0 Z " fill="#4C4239" transform="translate(196,116)"/>
</svg>
